<svg width="320" height="69.99932353355554" viewBox="0 0 320 69.99932353355554" class="css-1j8o68f">
  <defs id="SvgjsDefs1732"></defs>
  <g id="SvgjsG1733" featurekey="symbolFeature-0" transform="matrix(1.1111003735485006,0,0,1.1111003735485006,-5.550973547957995,-35.56299386077032)" fill="#34a853">
    <path xmlns="http://www.w3.org/2000/svg" d="M94.54,91.736l-9.543-11.729v-46c0-1.104-0.896-2-2-2h-66c-1.104,0-2,0.896-2,2v46L5.453,91.736  c-0.493,0.598-0.596,1.426-0.266,2.125c0.331,0.701,1.035,1.146,1.809,1.146h86.001c0.773,0,1.479-0.445,1.809-1.146  S95.032,92.333,94.54,91.736z M18.997,36.007h62v43h-62V36.007z M52.165,92.007c-0.855,0-3.482,0-4.338,0  c-1.601,0-2.896-1.311-2.983-2.977H13.012l4.985-6.023h64l5,6.023h-32C54.911,90.699,53.766,92.007,52.165,92.007z"></path>
  </g>
  <g id="SvgjsG1734" featurekey="nameFeature-0" transform="matrix(0.9708735706647327,0,0,0.9708735706647327,117.22631016118834,-3.0954334084001385)" fill="#4285f4">
    <path d="M20.857 17.714 l-10.571 0 l0 4.8571 l14 0 l4.2857 4.2857 l0 8.8571 l-4.2857 4.2857 l-17.143 0 l-4.2857 -4.2857 l0 -4.2857 l5.4286 0 l2.2857 2.2857 l10.571 0 l0 -4.8571 l-14 0 l-4.2857 -4.2857 l0 -8.8571 l4.2857 -4.2857 l17.143 0 l4.2857 4.2857 l0 4.2857 l-5.4286 0 z M32.285711428571425 17.714 l0 -6.2857 l24.286 0 l0 6.2857 l-8.4571 0 l0 22.286 l-7.4286 0 l0 -22.286 l-8.4 0 z M60.28567142857143 40 l0 -24.286 l4.2857 -4.2857 l16.571 0 l4.2857 4.2857 l0 24.286 l-7.4286 0 l0 -8 l-10.286 0 l0 8 l-7.4286 0 z M67.71457142857143 25.714 l10.286 0 l0 -8 l-10.286 0 l0 8 z M108.85671428571429 11.428999999999998 l7.4286 0 l0 28.571 l-6.5714 0 l-11.143 -16 l0 16 l-7.4286 0 l0 -28.571 l6.5714 0 l11.143 15.886 l0 -15.886 z M142.85685714285717 11.428999999999998 l4.2857 4.2857 l0 20 l-4.2857 4.2857 l-20.857 0 l0 -28.571 l20.857 0 z M139.71385714285717 33.7143 l0 -16 l-10.286 0 l0 16 l10.286 0 z M152.8571 35.7143 l0 -24.286 l7.4286 0 l0 22.286 l10.286 0 l0 -22.286 l7.4286 0 l0 24.286 l-4.2857 4.2857 l-16.571 0 z M183.71424285714286 40 l0 -28.571 l20.857 0 l4.2857 4.2857 l0 12 l-4.2857 4.2857 l-13.429 0 l0 8 l-7.4286 0 z M191.14314285714286 25.714 l10.286 0 l0 -8 l-10.286 0 l0 8 z"></path>
  </g>
  <g id="SvgjsG1735" featurekey="nameFeature-1" transform="matrix(0.5809115904786023,0,0,0.5809115904786023,118.34051016927684,39.36139692856824)" fill="#4285f4">
    <path d="M28.571 15.713999999999999 l0 10 l-4.2857 4.2857 l4.2857 6.5714 l0 3.4286 l-6.8571 0 l-5.9429 -9.7143 l-5.4857 0 l0 9.7143 l-7.4286 0 l0 -28.571 l21.429 0 z M21.143 24 l0 -6.2857 l-10.857 0 l0 6.2857 l10.857 0 z M58.57157142857143 17.714 l-16.857 0 l0 4.8571 l14.571 0 l0 6.2857 l-14.571 0 l0 4.8571 l16.857 0 l0 6.2857 l-20 0 l-4.2857 -4.2857 l0 -24.286 l24.286 0 l0 6.2857 z M64.28567142857143 40 l0 -28.571 l20.857 0 l4.2857 4.2857 l0 12 l-4.2857 4.2857 l-13.429 0 l0 8 l-7.4286 0 z M71.71457142857143 25.714 l10.286 0 l0 -8 l-10.286 0 l0 8 z M115.99971428571429 11.428999999999998 l4.2857 4.2857 l0 20 l-4.2857 4.2857 l-16.571 0 l-4.2857 -4.2857 l0 -20 l4.2857 -4.2857 l16.571 0 z M112.85671428571429 33.7143 l0 -16 l-10.286 0 l0 16 l10.286 0 z M151.71385714285717 15.713999999999999 l0 10 l-4.2857 4.2857 l4.2857 6.5714 l0 3.4286 l-6.8571 0 l-5.9429 -9.7143 l-5.4857 0 l0 9.7143 l-7.4286 0 l0 -28.571 l21.429 0 z M144.28585714285714 24 l0 -6.2857 l-10.857 0 l0 6.2857 l10.857 0 z M155.42856857142857 17.714 l0 -6.2857 l24.286 0 l0 6.2857 l-8.4571 0 l0 22.286 l-7.4286 0 l0 -22.286 l-8.4 0 z M223.42814285714286 15.713999999999999 l0 6.9714 l-3.0286 3.0286 l3.0286 3.0286 l0 6.9714 l-4.2857 4.2857 l-21.429 0 l0 -28.571 l21.429 0 z M216.00014285714286 22.571 l0 -4.8571 l-10.857 0 l0 4.8571 l10.857 0 z M216.00014285714286 33.7143 l0 -4.8571 l-10.857 0 l0 4.8571 l10.857 0 z M229.14281428571428 35.7143 l0 -24.286 l7.4286 0 l0 22.286 l10.286 0 l0 -22.286 l7.4286 0 l0 24.286 l-4.2857 4.2857 l-16.571 0 z M280.8568571428571 11.428999999999998 l4.2857 4.2857 l0 20 l-4.2857 4.2857 l-20.857 0 l0 -28.571 l20.857 0 z M277.71385714285714 33.7143 l0 -16 l-10.286 0 l0 16 l10.286 0 z M311.71399999999994 11.428999999999998 l4.2857 4.2857 l0 20 l-4.2857 4.2857 l-20.857 0 l0 -28.571 l20.857 0 z M308.57099999999997 33.7143 l0 -16 l-10.286 0 l0 16 l10.286 0 z M347.1431428571428 11.428999999999998 l0 3.4286 l-9.7143 15.714 l0 9.4286 l-7.4286 0 l0 -9.4857 l-9.7143 -15.657 l0 -3.4286 l6.5714 0 l6.8571 11.657 l6.8571 -11.657 l6.5714 0 z"></path>
  </g>
</svg>